<svg xmlns="http://www.w3.org/2000/svg" viewBox="0 0 750.1 580.9">
  <defs>
    <style>
      .a{fill:#130c0e}.c{fill:#fff100}.d{fill:#fff}
    </style>
  </defs>
  <path class="a" d="M26 515h700v-10c8-48-21-84-21-84-10-14-56-74-164-134l-10-48c113-21 116-104 84-158 0 0-28-63-87-81 23 35 34 83 35 90 9 60-55 59-65 58-41-77-126-83-155-84-13 1-87 10-106 77-7 1-49-3-43-40 2-36 24-76 36-99-23 4-104 54-98 143 1 6 10 78 98 85 1 11 4 21 7 32l13-18 10 22 15-16 9 21 5-6c5 13 3 28-5 36l-7-14-13 19-13-23c-9 13-8 23-9 34-1 0-150 45-182 110-29 43-34 88-34 88zm202-299l-19-4c-97-29-78-144 4-192 0 0-76 126 19 132-5 25-7 41-4 64zm346-102c2-15-4-62-28-96 58 41 73 102 75 116 4 31-20 102-146 93-54-17-27-70 0-69 6 0 84 10 99-44z"/>
  <path class="a" d="M361 146c-4 1-30 7-46 35-4 9-6 17-2 25 13 19 41 6 45 3 4-2 36-23 27-51-3-10-16-12-24-12zm-42 52c-3-7 2-15 6-21 14-16 29-23 36-24l10 1c32 18-36 78-52 44zM269 150c-12-8-26 3-25 15 4 23 11 35 20 41 7 5 19 13 24 1 5-28-12-52-19-57zm-11 41c-4-5-15-36 1-36 15-1 23 28 24 38 2 18-13 16-25-2z"/>
  <path d="M680 408c-10-12-66-70-149-111-6-17-13-55-15-57-92 11-85-52-85-55 0 0 1-39 51-38-16-24-62-75-142-73-13 3-66 12-91 61-23 45-10 107-9 108l13-17 9 27 15-18 8 23 16-23 16 23 16-25 20 18 16-25 17 16 15-25c14 19 17 32 21 42 5 25-2 53-8 61l-13-22-17 30-13-23-16 27-15-27-20 27-14-28-18 26-12-27-12 22-12-25c-5 26 2 41 12 58a248 248 0 0029 40c-5 6-42-24-50-70-13 3-104 43-123 56 0 0-36 25-57 69l-25 45h679s-8-66-37-90zM288 207c-5 12-17 4-24-1-9-6-16-18-20-41-1-12 13-23 25-15 7 5 24 29 19 57zm70 2c-4 3-32 16-45-3-4-8-2-16 2-25 16-28 42-34 46-35 8 0 21 2 24 12 9 28-23 49-27 51zM234 430s-86-18-92-30c0 0 4-3 46 10 0 0 85 20 87 27 0 0-2 6-41-7zm306-21c-130 35-151 33-151 33-2-9 174-53 175-42-7 4-16 5-24 9z" fill="#ec1c24"/>
  <path class="c" d="M475 158c-27-1-54 52 0 69 126 9 150-62 146-93-2-14-17-75-75-116 24 34 30 81 28 96-15 54-93 44-99 44zM213 20c-82 48-101 163-4 192l19 4c-3-23-1-39 4-64-95-6-19-132-19-132zM371 154l-10-1c-7 1-22 8-36 24-4 6-9 14-6 21 16 34 84-26 52-44zM259 155c-16 0-5 31-1 36 12 18 27 20 25 2-1-10-9-39-24-38z"/>
  <path class="a" d="M389 442s21 2 151-33c8-4 17-5 24-9-1-11-177 33-175 42zM188 410c-42-13-46-10-46-10 6 12 92 30 92 30 39 13 41 7 41 7-2-7-87-27-87-27z"/>
  <g>
    <path class="a" d="M102 504c-4 0-6 3-5 6 0 8 2 25 10 25 4 0 5-3 5-7 0-5-3-24-10-24z"/>
    <path class="d" d="M107 554h-1c-17-1-28-17-28-43a26 26 0 017-19 24 24 0 0118-7 24 24 0 0116 7c11 11 12 31 12 36 0 10-4 16-7 20a23 23 0 01-17 6zm-5-31zm-1 0a15 15 0 006-1v-6a15 15 0 00-10 5l-1 1a15 15 0 005 1zm7-7v6a15 15 0 004-3 14 14 0 001-2 14 14 0 00-5-1z"/>
    <path class="a" d="M403 521c-1 20 6 9 6 15 0 7-9 14-17 14-9-1-9-6-12-6-2 0-6 6-16 5-10 0-19-4-19-15 0-9 8-18 28-19 3 0 5 1 5-4 0-3 0-11-6-11s-7 12-17 12c-3 0-6-2-6-6-1-10 19-16 29-16 7 0 25 3 25 19zM566 487c-5 0-10-2-10-8 0-7 15-10 21-10 5 0 11 1 11 6 0 10-15 12-22 12z"/>
    <path class="d" d="M577 488zm-8-13a14 14 0 005 11 13 13 0 001-7 12 12 0 000-4zm6 4zm-5-10a12 12 0 00-1 6h6a13 13 0 00-3-5 12 12 0 00-2-1z"/>
    <path class="a" d="M716 507c0-3-3-7-7-6-4-1-7 3-7 7 1 4 4 3 7 3s7 1 7-4z"/>
    <path class="d" d="M711 530h-2c-20 1-25-13-26-22v-1a28 28 0 0110-20 24 24 0 0117-6 25 25 0 0117 8 26 26 0 018 18 22 22 0 01-7 17c-5 5-12 6-17 6zm-3-10h1v-9 9a15 15 0 009-4 11 11 0 004-8h-20l20-1c-1-7-6-13-12-15l-1 9-1-9a17 17 0 00-7 5 16 16 0 00-5 11 12 12 0 004 8 13 13 0 008 4zm-12-12zm0-1z"/>
    <path class="a" d="M56 533c4 0 6-3 8-3s3 4 4 6c0 7-13 14-25 14-6 0-20-3-20-21v-23c0-4 1-4-4-3-6 0-6 0-6-5 0-2-1-3 1-4l26-17 6-1c4 0 4 0 4 5 0 10-1 9 4 9h9c4 0 4 1 4 6 0 6-1 7-5 7l-8-1c-4 1-4 1-4 5v17"/>
    <path class="a" d="M43 562c-4 0-15-1-23-9-4-4-9-11-9-24v-14a14 14 0 01-7-5c-4-4-4-8-4-12v-1a15 15 0 017-14l26-16a17 17 0 0111-3h1c3 0 9-1 13 4a15 15 0 015 10c16 0 17 12 17 17v1c0 6-1 19-17 19v3a15 15 0 011 0c10 0 15 8 16 17v1c0 4-1 9-7 15-7 7-18 11-29 11h-1zm-7-33l1 6c2 2 5 2 6 2h1a12 12 0 010-3 13 13 0 01-6-10l-1-17q0-6 3-11a14 14 0 01-2-3l-4 3a15 15 0 012 9v1z"/>
    <path class="a" d="M71 522c-1-20 17-32 36-32 20 0 31 16 31 30 0 18-20 30-37 30-16-1-31-10-30-28zm31-18c-4 0-6 3-5 6 0 8 2 25 10 25 4 0 5-3 5-7 0-5-3-24-10-24z"/>
    <path class="a" d="M101 562c-13 0-25-5-32-13-7-7-11-16-11-27a41 41 0 0112-30c9-9 22-14 37-14a44 44 0 0132 13 41 41 0 0112 29 38 38 0 01-12 27c-9 9-23 15-38 15zm-17-47a17 17 0 00-1 7c0 4 1 7 4 10a13 13 0 002 2 43 43 0 01-2-5 75 75 0 01-3-14zm15 14zm22-20a72 72 0 013 16 12 12 0 001-5v-1a16 16 0 00-4-10z"/>
    <g>
      <path class="a" d="M190 539c-5 15-12 29-31 29-8 1-18-4-18-13 0-6 5-11 11-11 10 0 7 12 12 12 3 0 4-3 4-5l-3-11-16-32c-3-5-9-4-9-9 0-4 2-9 26-8 4 0 15 0 15 7l-3 6c0 5 5 12 7 12 3 0 6-7 5-10 0-5-3-5-3-9 0-5 11-6 15-6 3-1 12 0 12 5 0 7-7 4-11 11a60 60 0 00-6 13z"/>
      <path class="a" d="M159 581c-9 0-17-3-23-8a25 25 0 01-7-18v-1a24 24 0 017-16 22 22 0 0111-6l-9-17c-7-4-10-9-11-16v-1c2-20 28-20 39-20 8 0 14 2 18 4 4-2 10-4 17-4h1c3 0 13 0 20 7a16 16 0 014 12c0 7-4 13-12 16l-1 1a49 49 0 00-4 10v1l-7 18c-4 11-13 38-43 38zm1-78l16 32a13 13 0 010 1l1 2 1-4h1l2-6a15 15 0 01-6-3c-5-4-10-13-10-21v-1h-5z"/>
    </g>
    <g>
      <path class="a" d="M236 516c1-14-5-9-5-14 0-8 28-12 28-12 3 0 4 3 3 6 0 1 0 5 2 5 3 0 8-11 21-10 13-1 14 10 16 10 2-1 8-10 20-11 11 0 17 7 17 18v23c0 7 4 8 4 11 0 7-13 7-17 7s-17-1-17-6 4-4 4-11v-10c0-5 1-14-6-15-6 0-5 8-5 12l-1 7c1 14 4 12 5 16 0 7-14 7-18 7-17 0-18-3-18-6 0-6 6-1 5-15v-6c0-4 1-14-6-14-6 0-5 7-5 11v10c0 10 3 9 3 13 0 3-3 7-18 7-5 0-18 0-18-6 0-5 7-2 7-16z"/>
      <path class="a" d="M248 562h-1a67 67 0 01-13-1c-15-4-16-14-16-18a17 17 0 016-13 17 17 0 000-3v-10-1-2a15 15 0 01-5-12 17 17 0 016-13c4-4 11-7 21-9l13-2a16 16 0 0110 3 34 34 0 0116-3c8 0 14 2 18 5a34 34 0 0117-5h1c9 0 16 3 22 8 5 6 8 13 8 22v23a17 17 0 014 11c0 3-1 14-17 18a57 57 0 01-13 2c-3 0-11 0-18-4-5 2-11 4-20 4-8 0-15-1-20-3a51 51 0 01-19 3zm1-46v11a38 38 0 01-1 10h3a41 41 0 01-1-8v-10c0-3 0-8 2-13a15 15 0 01-1-1h-3a37 37 0 011 11zm37 21h3a55 55 0 01-1-10 12 12 0 010-2v-6a33 33 0 011-12 23 23 0 01-1-2l-1-2a6 6 0 00-2 0 12 12 0 00-2 0c4 6 4 14 4 18v7a40 40 0 01-1 9zm39-15v11a25 25 0 01-1 3h2a27 27 0 010-4v-24-1l-1-3-4-1c4 6 4 14 4 19z"/>
    </g>
    <g>
      <path class="a" d="M403 521c-1 20 6 9 6 15 0 7-9 14-17 14-9-1-9-6-12-6-2 0-6 6-16 5-10 0-19-4-19-15 0-9 8-18 28-19 3 0 5 1 5-4 0-3 0-11-6-11s-7 12-17 12c-3 0-6-2-6-6-1-10 19-16 29-16 7 0 25 3 25 19z"/>
      <path class="a" d="M392 562a25 25 0 01-13-3 34 34 0 01-15 3c-10 0-18-3-24-9a26 26 0 01-7-19 27 27 0 016-18 19 19 0 01-3-10c0-4 1-10 7-15 8-9 24-13 35-13 5 0 19 0 29 10a29 29 0 018 21v15c4 2 7 7 7 12 0 15-16 26-30 26zm0-25a3 3 0 001 0c-3-6-3-13-3-16v-5a15 15 0 01-7 10 17 17 0 01-10 2c-12 0-15 4-15 5v1a2 2 0 000 1l6 2a10 10 0 007-2 19 19 0 018-4 13 13 0 011 0c7 0 10 4 12 6zm24-10z"/>
    </g>
    <g>
      <path class="a" d="M446 490c17 0 26 10 26 18 0 6-5 10-11 11-12 0-7-15-16-14-5 0-7 5-7 9 0 9 6 17 14 17s10-3 13-3 5 4 5 6c-1 7-10 15-26 15-17 1-31-12-31-29s14-30 33-30z"/>
      <path class="a" d="M444 562a44 44 0 01-31-13 42 42 0 01-13-29c0-24 20-42 46-43 12 0 23 4 30 12a27 27 0 018 19 23 23 0 01-5 15 20 20 0 013 10 13 13 0 010 2c-1 13-15 27-38 27zm-18-42a17 17 0 004 12h1a30 30 0 01-5-12zm33-12z"/>
    </g>
    <g>
      <path class="a" d="M548 531c-1 9 5 7 5 12 0 6-15 6-19 6s-17 0-17-5c0-4 4-4 4-10l1-11c0-6 0-16-8-16-7 0-7 6-7 11v13c0 9 5 7 5 12 0 6-13 6-18 6-16 0-19-3-20-7 0-4 5-2 7-10l1-26v-15c0-8-7-5-7-11 0-9 29-11 29-11 4 0 4 1 4 4l-1 21c0 3 0 6 3 6s4-10 17-10c21 0 20 20 20 23z"/>
      <path class="a" d="M494 562c-9 0-16-1-21-3-8-4-11-11-11-15a13 13 0 010-2 17 17 0 017-13v-1a128 128 0 001-23v-11a16 16 0 01-8-14c0-11 8-18 25-21a123 123 0 0116-3h1c4 0 16 1 16 16v6a33 33 0 017 0c12 0 20 5 24 9 6 6 9 15 8 26l1 18a16 16 0 016 11v1a17 17 0 01-5 12c-7 6-19 7-27 7h-1a69 69 0 01-12-1 29 29 0 01-7-3 28 28 0 01-6 2 62 62 0 01-13 2h-1zm-2-25h3a32 32 0 01-1-6l1-8a61 61 0 01-2 12l-1 2zm42 0h1a28 28 0 010-6l-1-17v-2l-1-8a5 5 0 00-3-1c5 7 4 15 4 20v2a54 54 0 010 12zm26-5zm-92-2zm27-24v7a23 23 0 012-8 18 18 0 01-2-7v8zm-2-23a22 22 0 012 7v4-11h-2z"/>
    </g>
    <g>
      <path class="a" d="M589 527c0 13 6 9 6 14 0 8-14 8-19 8-20 0-21-4-21-7 0-4 5-4 6-8 2-4 2-20 1-24s-7-3-7-8c0-8 29-11 30-11 3-1 3 2 3 5zm-23-40c-5 0-10-2-10-8 0-7 15-10 21-10 5 0 11 1 11 6 0 10-15 12-22 12z"/>
      <path class="a" d="M577 562h-1c-15 0-23-2-28-8a17 17 0 01-5-12 17 17 0 017-13 97 97 0 000-13 17 17 0 01-7-14 17 17 0 014-12 19 19 0 01-3-11 19 19 0 015-13c8-8 23-10 28-10 17 0 23 11 23 20a20 20 0 01-2 9c3 4 3 8 3 10v33a16 16 0 017 13 18 18 0 01-6 13c-5 5-13 8-25 8zm-1-26a20 20 0 011 1 35 35 0 01-1-10v-22h-2v2c2 6 2 21 0 29h2zm25-6z"/>
    </g>
    <g>
      <path class="a" d="M630 529c1 11 4 9 4 13 0 7-15 7-20 7-4 0-16 0-16-7 0-5 5 0 5-11l1-18c0-8-7-5-7-11s26-12 29-12a4 4 0 014 5 5 5 0 010 2 3 3 0 002 3c2 0 3-2 5-5 2-2 6-5 12-4 24-1 20 23 21 40 0 8 5 6 5 11 0 2 0 7-21 7-4 0-15 0-15-6 0-4 4-2 5-9 0-9 3-27-7-27-8 0-7 8-7 13z"/>
      <path class="a" d="M613 562c-10 0-18-2-22-7a17 17 0 01-5-13 16 16 0 015-12v-14a17 17 0 01-6-14c0-13 15-18 22-20a103 103 0 0120-4 17 17 0 019 3 30 30 0 0113-3h1c13 0 23 6 28 18 4 8 4 18 4 26v8a17 17 0 016 12 16 16 0 01-5 12c-5 5-13 8-29 8-6 0-13-1-18-4a29 29 0 01-6 2 70 70 0 01-15 2h-2zm3-31a35 35 0 010 6h2a40 40 0 010-7l-1-9v-1-2l3-13h-1l-4 1a21 21 0 012 8zm41-5v5l-1 3v2h2a31 31 0 01-1-5v-5zm25 5zm-29-28a26 26 0 014 10c-1-7-2-9-4-10zm-36-10z"/>
    </g>
    <g>
      <path class="a" d="M706 522c-1 0-3 0-3 2 0 5 7 10 13 10 8 0 12-5 15-5 2 0 4 3 4 5 0 9-16 15-26 15-20 0-31-14-31-29 0-17 15-30 32-30 19 0 27 15 28 23 0 8-4 9-7 9zm10-15c0-3-3-7-7-6-4-1-7 3-7 7 1 4 4 3 7 3s7 1 7-4z"/>
      <path class="a" d="M709 562c-13 0-24-5-32-13a42 42 0 010-58 46 46 0 0133-14 39 39 0 0140 36c0 6-1 11-4 14a18 18 0 012 8c0 4-2 9-7 15-8 8-22 12-32 12zm-17-47a16 16 0 00-1 5 15 15 0 011-4 16 16 0 010-1zm11-7a5 5 0 000 1 19 19 0 013 0h9a5 5 0 000-1zm0 0zm0 0l12-1a9 9 0 00-1-4 21 21 0 00-4 0 22 22 0 00-6 0 9 9 0 00-1 5z"/>
    </g>
  </g>
  <g>
    <path class="d" d="M50 524c0 7 3 9 6 9 4 0 6-3 8-3s3 4 4 6c0 7-13 14-25 14-6 0-20-3-20-21v-23c0-4 1-4-4-3-6 0-6 0-6-5 0-2-1-3 1-4l26-17 6-1c4 0 4 0 4 5 0 10-1 9 4 9h9c4 0 4 1 4 6 0 6-1 7-5 7l-8-1c-4 1-4 1-4 5zM71 522c-1-20 17-32 36-32 20 0 31 16 31 30 0 18-20 30-37 30-16-1-31-10-30-28zm31-18c-4 0-6 3-5 6 0 8 2 25 10 25 4 0 5-3 5-7 0-5-3-24-10-24zM190 539c-5 15-12 29-31 29-8 1-18-4-18-13 0-6 5-11 11-11 10 0 7 12 12 12 3 0 4-3 4-5l-3-11-16-32c-3-5-9-4-9-9 0-4 2-9 26-8 4 0 15 0 15 7l-3 6c0 5 5 12 7 12 3 0 6-7 5-10 0-5-3-5-3-9 0-5 11-6 15-6 3-1 12 0 12 5 0 7-7 4-11 11a60 60 0 00-6 13zM236 516c1-14-5-9-5-14 0-8 28-12 28-12 3 0 4 3 3 6 0 1 0 5 2 5 3 0 8-11 21-10 13-1 14 10 16 10 2-1 8-10 20-11 11 0 17 7 17 18v23c0 7 4 8 4 11 0 7-13 7-17 7s-17-1-17-6 4-4 4-11v-10c0-5 1-14-6-15-6 0-5 8-5 12l-1 7c1 14 4 12 5 16 0 7-14 7-18 7-17 0-18-3-18-6 0-6 6-1 5-15v-6c0-4 1-14-6-14-6 0-5 7-5 11v10c0 10 3 9 3 13 0 3-3 7-18 7-5 0-18 0-18-6 0-5 7-2 7-16zM403 521c-1 20 6 9 6 15 0 7-9 14-17 14-9-1-9-6-12-6-2 0-6 6-16 5-10 0-19-4-19-15 0-9 8-18 28-19 3 0 5 1 5-4 0-3 0-11-6-11s-7 12-17 12c-3 0-6-2-6-6-1-10 19-16 29-16 7 0 25 3 25 19zm-34 10c0 3 1 6 4 6 5 0 5-5 5-8s0-5-3-6a7 7 0 00-6 8zM446 490c17 0 26 10 26 18 0 6-5 10-11 11-12 0-7-15-16-14-5 0-7 5-7 9 0 9 6 17 14 17s10-3 13-3 5 4 5 6c-1 7-10 15-26 15-17 1-31-12-31-29s14-30 33-30zM548 531c-1 9 5 7 5 12 0 6-15 6-19 6s-17 0-17-5c0-4 4-4 4-10l1-11c0-6 0-16-8-16-7 0-7 6-7 11v13c0 9 5 7 5 12 0 6-13 6-18 6-16 0-19-3-20-7 0-4 5-2 7-10l1-26v-15c0-8-7-5-7-11 0-9 29-11 29-11 4 0 4 1 4 4l-1 21c0 3 0 6 3 6s4-10 17-10c21 0 20 20 20 23zM589 527c0 13 6 9 6 14 0 8-14 8-19 8-20 0-21-4-21-7 0-4 5-4 6-8 2-4 2-20 1-24s-7-3-7-8c0-8 29-11 30-11 3-1 3 2 3 5zm-23-40c-5 0-10-2-10-8 0-7 15-10 21-10 5 0 11 1 11 6 0 10-15 12-22 12zM630 529c1 11 4 9 4 13 0 7-15 7-20 7-4 0-16 0-16-7 0-5 5 0 5-11l1-18c0-8-7-5-7-11s26-12 29-12a4 4 0 014 5 5 5 0 010 2 3 3 0 002 3c2 0 3-2 5-5 2-2 6-5 12-4 24-1 20 23 21 40 0 8 5 6 5 11 0 2 0 7-21 7-4 0-15 0-15-6 0-4 4-2 5-9 0-9 3-27-7-27-8 0-7 8-7 13zM706 522c-1 0-3 0-3 2 0 5 7 10 13 10 8 0 12-5 15-5 2 0 4 3 4 5 0 9-16 15-26 15-20 0-31-14-31-29 0-17 15-30 32-30 19 0 27 15 28 23 0 8-4 9-7 9zm10-15c0-3-3-7-7-6-4-1-7 3-7 7 1 4 4 3 7 3s7 1 7-4z"/>
  </g>
</svg>
